<?xml version="1.0" encoding="UTF-8" standalone="no"?>
<!-- See license.txt for terms of usage -->
<svg
   xmlns:dc="http://purl.org/dc/elements/1.1/"
   xmlns:cc="http://creativecommons.org/ns#"
   xmlns:rdf="http://www.w3.org/1999/02/22-rdf-syntax-ns#"
   xmlns:svg="http://www.w3.org/2000/svg"
   xmlns="http://www.w3.org/2000/svg"
   xmlns:xlink="http://www.w3.org/1999/xlink"
   version="1.1"
   width="4"
   height="8"
   id="svg2">
  <defs
     id="defs4">
    <linearGradient
       id="linearGradient3005">
      <stop
         id="stop3007"
         style="stop-color:#d4aa00;stop-opacity:1"
         offset="0" />
      <stop
         id="stop3009"
         style="stop-color:#ffdd55;stop-opacity:1"
         offset="1" />
    </linearGradient>
    <linearGradient
       x1="2.3241088"
       y1="1100.7864"
       x2="2.3241088"
       y2="1091.4856"
       id="linearGradient3011"
       xlink:href="#linearGradient3005"
       gradientUnits="userSpaceOnUse"
       gradientTransform="matrix(0.97362478,0,0,0.97362478,-0.13450145,8.0290488e-5)" />
  </defs>
  <metadata
     id="metadata7">
    <rdf:RDF>
      <cc:Work
         rdf:about="">
        <dc:format>image/svg+xml</dc:format>
        <dc:type
           rdf:resource="http://purl.org/dc/dcmitype/StillImage" />
        <dc:title></dc:title>
      </cc:Work>
    </rdf:RDF>
  </metadata>
  <g
     transform="matrix(0.79999999,0,0,0.88888888,0,-927.43303)"
     id="layer1">
    <g
       transform="scale(1.0184747,0.98186042)"
       id="text2985"
       style="font-size:42.3782959px;font-style:normal;font-variant:normal;font-weight:normal;font-stretch:normal;line-height:125%;letter-spacing:0px;word-spacing:0px;fill:url(#linearGradient3011);fill-opacity:1;stroke:none;font-family:Corbel;-inkscape-font-specification:Corbel">
      <path
         d="m 4.9093021,1064.9044 c -5.5e-6,0.2645 -0.029147,0.4943 -0.087426,0.6893 -0.058289,0.1951 -0.1367485,0.3654 -0.2353775,0.5111 -0.098639,0.1457 -0.2118448,0.2724 -0.3396161,0.38 -0.1277811,0.1076 -0.2611616,0.2085 -0.4001417,0.3026 -0.1569227,0.1076 -0.3138409,0.2107 -0.470755,0.3094 -0.1569223,0.099 -0.2981486,0.2096 -0.4236795,0.3329 -0.1255382,0.1233 -0.227535,0.2678 -0.3059908,0.4337 -0.078462,0.1659 -0.117692,0.3677 -0.1176888,0.6053 l 0,0.1076 -1.4996909,0 c -0.00449,-0.04 -0.00785,-0.091 -0.010088,-0.1513 -0.00224,-0.061 -0.00336,-0.1087 -0.00336,-0.1446 -1.7e-6,-0.3363 0.043711,-0.6198 0.1311389,-0.8507 0.087424,-0.2309 0.1995084,-0.4293 0.3362535,-0.5952 0.1367409,-0.1659 0.2880548,-0.3082 0.4539424,-0.427 0.1658823,-0.1189 0.3295255,-0.2298 0.4909302,-0.3329 0.1120813,-0.076 0.2185615,-0.1513 0.3194409,-0.2253 0.1008725,-0.074 0.1894192,-0.1558 0.2656403,-0.2455 0.076214,-0.09 0.1367393,-0.1883 0.1815769,-0.2959 0.04483,-0.1076 0.067247,-0.2309 0.067251,-0.3699 -3.9e-6,-0.3004 -0.1098466,-0.5413 -0.3295285,-0.7229 -0.219689,-0.1816 -0.5626673,-0.2724 -1.0289359,-0.2724 -0.3452226,0 -0.6848383,0.043 -1.01884832,0.1278 -0.33401311,0.085 -0.62879511,0.1861 -0.8843469004891,0.3026 l 0,-1.2979 C 0.1345006,1063.0124 0.28581456,1062.9541 0.4539423,1062.9003 c 0.1681255,-0.054 0.34297718,-0.1 0.52455558,-0.1378 0.18157512,-0.038 0.36763522,-0.068 0.55818092,-0.091 0.1905413,-0.022 0.3754806,-0.034 0.5548184,-0.034 0.4438515,10e-5 0.8406303,0.053 1.1903377,0.1581 0.3496994,0.1054 0.6444814,0.2567 0.8843469,0.4539 0.2398558,0.1973 0.4236742,0.436 0.5514558,0.7163 0.1277709,0.2802 0.191659,0.5929 0.1916645,0.9381 z m -4.00141747,5.1043 1.80904427,0 0,1.7956 -1.80904427,0 z"
         id="path2990"
         style="font-size:13.77294636px;font-weight:bold;-inkscape-font-specification:Corbel Bold" />
    </g>
  </g>
</svg>
