<?xml version="1.0" encoding="UTF-8" standalone="no"?>
<!-- See license.txt for terms of usage -->
<svg
   xmlns:dc="http://purl.org/dc/elements/1.1/"
   xmlns:cc="http://creativecommons.org/ns#"
   xmlns:rdf="http://www.w3.org/1999/02/22-rdf-syntax-ns#"
   xmlns:svg="http://www.w3.org/2000/svg"
   xmlns="http://www.w3.org/2000/svg"
   version="1.1"
   width="12"
   height="12"
   id="svg2">
  <metadata
     id="metadata7">
    <rdf:RDF>
      <cc:Work
         rdf:about="">
        <dc:format>image/svg+xml</dc:format>
        <dc:type
           rdf:resource="http://purl.org/dc/dcmitype/StillImage" />
        <dc:title></dc:title>
      </cc:Work>
    </rdf:RDF>
  </metadata>
  <defs
     id="defs4">
    <filter id="filter2984">
      <feColorMatrix type="saturate" values="0"/>
    </filter>
  </defs>
  <path
     d="M 5.5625,0 A 6,6 0 0 0 0,6 6,6 0 0 0 12,6 6,6 0 0 0 5.5625,0 z m 0.15625,2 a 4,4 0 0 1 2.25,0.5 L 2.5,7.96875 A 4,4 0 0 1 2,6 4,4 0 0 1 5.71875,2 z m 3.6875,1.90625 A 4,4 0 0 1 10,6 4,4 0 0 1 3.90625,9.40625 l 5.5,-5.5 z"
     id="path2989"
     style="fill:#ff0000;fill-opacity:1;stroke:#a00000;stroke-width:0;stroke-linecap:round;stroke-linejoin:round;stroke-miterlimit:4;stroke-opacity:1;stroke-dasharray:none;filter:url(#filter2984)" />
</svg>
