<?xml version="1.0" encoding="UTF-8" standalone="no"?>
<!-- See license.txt for terms of usage -->
<svg
   xmlns:dc="http://purl.org/dc/elements/1.1/"
   xmlns:cc="http://creativecommons.org/ns#"
   xmlns:rdf="http://www.w3.org/1999/02/22-rdf-syntax-ns#"
   xmlns:svg="http://www.w3.org/2000/svg"
   xmlns="http://www.w3.org/2000/svg"
   version="1.1"
   width="14"
   height="14"
   id="svg2">
  <defs
     id="defs4" />
  <metadata
     id="metadata7">
    <rdf:RDF>
      <cc:Work
         rdf:about="">
        <dc:format>image/svg+xml</dc:format>
        <dc:type
           rdf:resource="http://purl.org/dc/dcmitype/StillImage" />
        <dc:title></dc:title>
      </cc:Work>
    </rdf:RDF>
  </metadata>
  <path
     d="m 13.75446,7.0000308 a 6.7544615,6.7544617 0 1 1 -13.50892264,0 6.7544615,6.7544617 0 1 1 13.50892264,0 z"
     id="path2989"
     style="fill:#ff0000;fill-opacity:1;stroke:#a00000;stroke-width:0.49107692;stroke-linecap:round;stroke-linejoin:round;stroke-miterlimit:4;stroke-opacity:1;stroke-dasharray:none" />
  <g
     transform="scale(1.1381238,0.87863904)"
     id="text3759"
     style="font-size:44.41777039px;font-style:normal;font-weight:normal;line-height:125%;letter-spacing:0px;word-spacing:0px;fill:#000000;fill-opacity:1;stroke:#ffffff;stroke-width:0.40000001;stroke-miterlimit:4;stroke-opacity:1;font-family:Sans">
    <path
       d="m 9.3264631,12.088157 c -6.7e-6,0.04772 -0.043745,0.07157 -0.1312146,0.07157 l -0.9602523,0.006 c -0.04772,0 -0.073565,-0.002 -0.077536,-0.006 C 8.0978118,12.139848 7.7548649,11.644812 7.1286185,10.674618 6.5023632,9.7044279 6.1792972,9.2173439 6.1594198,9.2133647 6.0878447,9.2650582 5.7359514,9.7759994 5.1037386,10.74619 4.4953782,11.68855 4.1613777,12.159729 4.1017362,12.159729 l -0.9900738,0 c -0.091453,0 -0.1371792,-0.03181 -0.1371789,-0.09543 l 0,-0.858859 c -3e-7,-0.07555 0.3737621,-0.609351 1.1212884,-1.6014146 C 4.8432953,8.611968 5.2170578,8.0761756 5.2170603,7.9966475 5.2170578,7.9091754 4.8452834,7.3644365 4.1017362,6.3624293 3.3581861,5.3604337 2.9864117,4.8296115 2.9864121,4.7699611 l 0,-0.9185022 c -4e-7,-0.055658 0.053678,-0.083492 0.1610361,-0.0835 0.111333,8.4e-6 0.2783332,0.00398 0.5010012,0.011929 0.222666,0.00796 0.3896662,0.011937 0.5010012,0.011929 0.01988,8.4e-6 0.093439,0.091461 0.2206791,0.2743578 0.3737607,0.5884851 0.9383806,1.4672245 1.6938613,2.6362207 0.019878,0.027839 0.053675,0.05766 0.1013931,0.089465 C 6.2210473,6.7640309 6.5649882,6.2530897 7.197208,5.2590338 7.8214662,4.2808964 8.161431,3.7918243 8.2171033,3.7918159 l 0.9423594,0 c 0.1033746,8.4e-6 0.1550652,0.027842 0.1550718,0.0835 l 0,0.9185022 c -6.6e-6,0.099412 -0.3707869,0.6421631 -1.1123419,1.628254 -0.7415662,0.9861024 -1.1123465,1.5049959 -1.112342,1.5566823 -4.5e-6,0.063623 0.3727639,0.603392 1.1183063,1.6193075 0.7455312,1.0159211 1.1182995,1.5596661 1.1183062,1.6312361 z"
       id="path2990"
       style="font-size:12.21488667px;font-variant:normal;font-stretch:normal;fill:#ffffff;fill-opacity:1;stroke:#ffffff;" />
  </g>
</svg>
