<?xml version="1.0" encoding="UTF-8" standalone="no"?>
<!-- See license.txt for terms of usage -->

<svg
   xmlns:dc="http://purl.org/dc/elements/1.1/"
   xmlns:cc="http://creativecommons.org/ns#"
   xmlns:rdf="http://www.w3.org/1999/02/22-rdf-syntax-ns#"
   xmlns:svg="http://www.w3.org/2000/svg"
   xmlns="http://www.w3.org/2000/svg"
   version="1.1"
   width="13"
   height="13"
   id="svg2">
  <defs
     id="defs4" />
  <metadata
     id="metadata7">
    <rdf:RDF>
      <cc:Work
         rdf:about="">
        <dc:format>image/svg+xml</dc:format>
        <dc:type
           rdf:resource="http://purl.org/dc/dcmitype/StillImage" />
        <dc:title></dc:title>
      </cc:Work>
    </rdf:RDF>
  </metadata>
  <path
     d="m 12.771985,6.4991392 a 6.2719864,6.2727788 0 1 1 -12.54397281,0 6.2719864,6.2727788 0 1 1 12.54397281,0 z"
     id="path2989"
     style="fill:#ff0000;fill-opacity:1;stroke:#a00000;stroke-width:0.45602781;stroke-linecap:round;stroke-linejoin:round;stroke-miterlimit:4;stroke-opacity:1;stroke-dasharray:none" />
  <g
     transform="scale(1.1380519,0.87869453)"
     id="text3759"
     style="font-size:41.24758911px;font-style:normal;font-weight:normal;line-height:125%;letter-spacing:0px;word-spacing:0px;fill:#ffffff;fill-opacity:1;stroke:#ffffff;stroke-width:0.37145123;stroke-miterlimit:4;stroke-opacity:1;font-family:Sans">
    <path
       d="m 8.6608281,11.223542 c -6.2e-6,0.04431 -0.040623,0.06646 -0.1218496,0.06646 l -0.8917173,0.0055 c -0.044314,0 -0.068315,-0.0018 -0.072002,-0.0055 C 7.519868,11.271544 7.2013978,10.811839 6.6198478,9.9108901 6.0382895,9.009944 5.7382814,8.5576241 5.7198226,8.553929 5.653356,8.601933 5.3265779,9.0764074 4.7394874,9.9773535 4.1745468,10.852455 3.8643845,11.290006 3.8089998,11.290006 l -0.9194104,0 c -0.084926,0 -0.1273885,-0.02954 -0.1273882,-0.08862 l 0,-0.797561 c -3e-7,-0.07015 0.347086,-0.5658606 1.04126,-1.4871186 C 4.4976324,7.9954551 4.8447187,7.4979032 4.8447211,7.4240512 4.8447187,7.3428221 4.4994786,6.8369622 3.8089998,5.9064702 3.1185182,4.9759889 2.7732781,4.4830524 2.7732785,4.4276595 l 0,-0.852947 c -4e-7,-0.051686 0.049847,-0.077533 0.1495426,-0.077541 0.1033869,7.7e-6 0.2584681,0.0037 0.4652438,0.011077 0.2067739,0.00739 0.361855,0.011085 0.4652438,0.011077 0.018461,7.8e-6 0.08677,0.084933 0.2049289,0.2547764 0.3470846,0.5464838 0.8714065,1.3625059 1.5729671,2.4480686 0.018459,0.025852 0.049844,0.053545 0.094157,0.083079 C 5.7770517,6.2794075 6.0964454,5.8049332 6.6835424,4.881825 7.2632462,3.9734991 7.578947,3.519333 7.6306459,3.5193252 l 0.8751014,0 c 0.095997,7.8e-6 0.1439979,0.025855 0.1440041,0.077541 l 0,0.8529469 c -6.2e-6,0.092317 -0.3443232,0.5963307 -1.0329521,1.5120424 -0.6886391,0.9157224 -1.0329561,1.3975816 -1.032952,1.445579 -4.1e-6,0.059082 0.3461591,0.5603267 1.0384907,1.5037345 0.6923212,0.9434125 1.0384844,1.448349 1.0384906,1.514811 z"
       id="path3758"
       style="font-size:11.3430872px;font-variant:normal;font-stretch:normal;fill:#ffffff;fill-opacity:1;stroke:#ffffff;" />
  </g>
</svg>
