<?xml version="1.0" encoding="UTF-8" standalone="no"?>
<!-- See license.txt for terms of usage -->
<svg
   xmlns:dc="http://purl.org/dc/elements/1.1/"
   xmlns:cc="http://creativecommons.org/ns#"
   xmlns:rdf="http://www.w3.org/1999/02/22-rdf-syntax-ns#"
   xmlns:svg="http://www.w3.org/2000/svg"
   xmlns="http://www.w3.org/2000/svg"
   version="1.1"
   width="14"
   height="14"
   id="svg2">
  <defs
     id="defs4" />
  <metadata
     id="metadata7">
    <rdf:RDF>
      <cc:Work
         rdf:about="">
        <dc:format>image/svg+xml</dc:format>
        <dc:type
           rdf:resource="http://purl.org/dc/dcmitype/StillImage" />
        <dc:title></dc:title>
      </cc:Work>
    </rdf:RDF>
  </metadata>
  <path
     d="m 13.75446,7.0000308 a 6.7544615,6.7544617 0 1 1 -13.50892264,0 6.7544615,6.7544617 0 1 1 13.50892264,0 z"
     id="path2989"
     style="fill:#0053ff;fill-opacity:1;stroke:#002896;stroke-width:0.49107692;stroke-linecap:round;stroke-linejoin:round;stroke-miterlimit:4;stroke-opacity:1;stroke-dasharray:none" />
  <g
     transform="scale(1.0517928,0.95075759)"
     id="text3759"
     style="font-size:42.07171249px;font-style:normal;font-weight:normal;line-height:125%;letter-spacing:0px;word-spacing:0px;fill:#ffffff;fill-opacity:1;stroke:none;font-family:Sans">
    <path
       d="m 8.5110909,11.735031 -3.5703437,0 0,-0.412397 c 0.09792,-0.0075 0.193958,-0.01695 0.2881132,-0.02825 0.094154,-0.0113 0.1751268,-0.03013 0.2429189,-0.05649 0.120517,-0.04519 0.2052561,-0.110161 0.2542175,-0.1949 0.048959,-0.08474 0.07344,-0.196783 0.073441,-0.336132 l 0,-3.2878802 C 5.7994363,7.2871707 5.7693068,7.1713607 5.709049,7.0715522 5.648789,6.971753 5.5734654,6.8917217 5.4830779,6.8314579 5.4152857,6.7862686 5.3126573,6.7429575 5.1751922,6.7015245 5.0377261,6.6601015 4.9125005,6.6337382 4.7995153,6.6224346 l 0,-0.4123973 2.7681461,-0.1468812 0.084739,0.084739 0,4.4855269 c -3e-6,0.131817 0.028243,0.243861 0.084739,0.336132 0.05649,0.09227 0.1374625,0.161005 0.2429189,0.206199 0.07532,0.0339 0.1581763,0.06402 0.2485683,0.09039 0.090385,0.02636 0.1845392,0.0452 0.2824639,0.05649 z M 7.6862963,4.029416 C 7.6862932,4.3156535 7.5761324,4.5595138 7.3558135,4.7609975 7.1354892,4.9624952 6.8746811,5.0632406 6.5733885,5.0632339 6.2683259,5.0632406 6.0056347,4.9624952 5.7853143,4.7609975 5.5649915,4.5595138 5.4548307,4.3156535 5.4548315,4.029416 c -8e-7,-0.2862221 0.11016,-0.5310239 0.3304828,-0.7344061 0.2203204,-0.2033654 0.4830116,-0.3050523 0.7880742,-0.305061 0.3050588,8.7e-6 0.5668084,0.1016956 0.7852497,0.305061 0.2184357,0.2033822 0.327655,0.448184 0.3276581,0.7344061 z"
       id="path2990"
       style="font-size:11.56972122px;font-weight:bold;fill:#ffffff;fill-opacity:1;" />
  </g>
</svg>
