<?xml version="1.0" encoding="UTF-8" standalone="no"?>
<!-- See license.txt for terms of usage -->
<svg
   xmlns:dc="http://purl.org/dc/elements/1.1/"
   xmlns:cc="http://creativecommons.org/ns#"
   xmlns:rdf="http://www.w3.org/1999/02/22-rdf-syntax-ns#"
   xmlns:svg="http://www.w3.org/2000/svg"
   xmlns="http://www.w3.org/2000/svg"
   xmlns:xlink="http://www.w3.org/1999/xlink"
   version="1.1"
   width="16"
   height="16"
   id="svg2997">
  <defs
     id="defs2999">
    <linearGradient
       id="linearGradient3851">
      <stop
         id="stop3853"
         style="stop-color:#6f9fdf;stop-opacity:1"
         offset="0" />
      <stop
         id="stop3855"
         style="stop-color:#b8d0f1;stop-opacity:1"
         offset="1" />
    </linearGradient>
    <linearGradient
       id="linearGradient3843">
      <stop
         id="stop3845"
         style="stop-color:#133cb8;stop-opacity:1"
         offset="0" />
      <stop
         id="stop3847"
         style="stop-color:#7faae8;stop-opacity:1"
         offset="1" />
    </linearGradient>
    <linearGradient
       x1="6.5870147"
       y1="7.5935378"
       x2="2.992208"
       y2="0.48701298"
       id="linearGradient3849"
       xlink:href="#linearGradient3843"
       gradientUnits="userSpaceOnUse" />
    <linearGradient
       x1="11.303897"
       y1="9.2675333"
       x2="7.0649347"
       y2="4.1974025"
       id="linearGradient3857"
       xlink:href="#linearGradient3851"
       gradientUnits="userSpaceOnUse" />
    <linearGradient
       x1="11.303897"
       y1="9.2675333"
       x2="7.0649347"
       y2="4.1974025"
       id="linearGradient3857-1"
       xlink:href="#linearGradient3851-2"
       gradientUnits="userSpaceOnUse" />
    <linearGradient
       id="linearGradient3851-2">
      <stop
         id="stop3853-6"
         style="stop-color:#6f9fdf;stop-opacity:1"
         offset="0" />
      <stop
         id="stop3855-0"
         style="stop-color:#b8d0f1;stop-opacity:1"
         offset="1" />
    </linearGradient>
    <linearGradient
       x1="11.303897"
       y1="9.2675333"
       x2="7.0649347"
       y2="4.1974025"
       id="linearGradient3874"
       xlink:href="#linearGradient3851-2"
       gradientUnits="userSpaceOnUse"
       gradientTransform="translate(1.8e-7,1036.3622)" />
    <linearGradient
       x1="6.5870147"
       y1="7.5935378"
       x2="2.992208"
       y2="0.48701298"
       id="linearGradient3930"
       xlink:href="#linearGradient3843"
       gradientUnits="userSpaceOnUse" />
  </defs>
  <metadata
     id="metadata3002">
    <rdf:RDF>
      <cc:Work
         rdf:about="">
        <dc:format>image/svg+xml</dc:format>
        <dc:type
           rdf:resource="http://purl.org/dc/dcmitype/StillImage" />
        <dc:title></dc:title>
      </cc:Work>
    </rdf:RDF>
  </metadata>
  <g
     transform="translate(0,-1036.3622)"
     id="layer1">
    <path
       d="M 0.5,0.8125 C 0.2265729,0.8535 -0.0021368,1.1672 0,1.5 l 0,5.625 c 2.96e-5,0.3598 0.264638,0.6875 0.5625,0.6875 l 4.40625,0 0,-0.46875 0,-0.53125 -3.5,0 c -0.261793,0 -0.499974,-0.2382 -0.5,-0.5 l 0,-4.09375 c -0.00188,-0.2422 0.197183,-0.47 0.4375,-0.5 l 0.0625,0 3.6875,0 C 5.382501,1.3190394 5.7898343,1.0078348 6.25,0.96875 c 0.4148152,-0.0311 0.8401357,0.1344 1.125,0.4375 l 0.3125,0.3125 6.84375,0 c 0.261792,0 0.499974,0.2382 0.5,0.5 l 0,4.09375 c -2.6e-5,0.2618 -0.238208,0.5 -0.5,0.5 l -1.96875,0 0.9375,1 1.9375,0 C 15.735361,7.8125 15.99997,7.4848 16,7.125 L 16,1.5 c -3e-5,-0.3598 -0.264639,-0.6875 -0.5625,-0.6875 l -14.9375,0 z"
       transform="translate(0,1036.3622)"
       id="rect3016-7"
       style="fill:#ffffff;fill-opacity:1;stroke:none" />
    <path
       d="M 0.5,0 C 0.22657294,0.041 -0.00213677,0.3547 0,0.6875 l 0,5.625 C 2.958117e-5,6.6723 0.26463797,7 0.5625,7 l 4.40625,0 0,-1 -3.5,0 C 1.206957,6 0.968776,5.7618 0.96875,5.5 l 0,-4.09375 c -0.001878,-0.2422 0.197183,-0.47 0.4375,-0.5 l 0.0625,0 13.0625,0 c 0.261792,0 0.499974,0.2382 0.5,0.5 l 0,4.09375 c -2.6e-5,0.2618 -0.238208,0.5 -0.5,0.5 l -2.75,0 0.96875,1 2.6875,0 C 15.735361,7 15.99997,6.6723 16,6.3125 l 0,-5.625 C 15.99997,0.3277 15.735361,0 15.4375,0 L 0.5,0 z"
       transform="translate(0,1036.3622)"
       id="rect3016"
       style="fill:url(#linearGradient3930);fill-opacity:1;stroke:none" />
    <path
       d="m 6.375,2.375 0,4.96875 0,4.9375 2.09375,-0.84375 1.625,3.84375 2.53125,-1.0625 -1.59375,-3.78125 2.1875,-0.875 L 9.8125,5.96875 6.375,2.375 z"
       transform="translate(0,1036.3622)"
       style="fill:url(#linearGradient3857);fill-opacity:1;stroke:#4673ce;stroke-linejoin:round;stroke-opacity:1" />
  </g>
</svg>
