<?xml version="1.0" encoding="UTF-8" standalone="no"?>
<!-- See license.txt for terms of usage -->
<svg
   xmlns:dc="http://purl.org/dc/elements/1.1/"
   xmlns:cc="http://creativecommons.org/ns#"
   xmlns:rdf="http://www.w3.org/1999/02/22-rdf-syntax-ns#"
   xmlns:svg="http://www.w3.org/2000/svg"
   xmlns="http://www.w3.org/2000/svg"
   xmlns:xlink="http://www.w3.org/1999/xlink"
   version="1.1"
   width="16"
   height="16"
   id="svg2">
  <defs
     id="defs4">
    <linearGradient
       id="linearGradient3918">
      <stop
         id="stop3920"
         style="stop-color:#dd8506;stop-opacity:1"
         offset="0" />
      <stop
         id="stop3922"
         style="stop-color:#f4a24b;stop-opacity:1"
         offset="1" />
    </linearGradient>
    <linearGradient
       id="linearGradient3830">
      <stop
         id="stop3832"
         style="stop-color:#e68507;stop-opacity:1"
         offset="0" />
      <stop
         id="stop3834"
         style="stop-color:#f4b65f;stop-opacity:1"
         offset="1" />
    </linearGradient>
    <linearGradient
       id="linearGradient3822">
      <stop
         id="stop3824"
         style="stop-color:#f3a952;stop-opacity:1"
         offset="0" />
      <stop
         id="stop3826"
         style="stop-color:#fadbba;stop-opacity:1"
         offset="1" />
    </linearGradient>
    <linearGradient
       x1="9.0597401"
       y1="13.304732"
       x2="9.0597401"
       y2="1.7038962"
       id="linearGradient3828"
       xlink:href="#linearGradient3822"
       gradientUnits="userSpaceOnUse"
       gradientTransform="translate(3.0003655,0)" />
    <linearGradient
       x1="3.8649352"
       y1="14.91948"
       x2="3.8649352"
       y2="13.048889"
       id="linearGradient3836"
       xlink:href="#linearGradient3830"
       gradientUnits="userSpaceOnUse"
       gradientTransform="translate(3.0004159,0)" />
    <linearGradient
       x1="6.7040629"
       y1="13.802267"
       x2="6.7040629"
       y2="1.2029145"
       id="linearGradient3835"
       xlink:href="#linearGradient3918"
       gradientUnits="userSpaceOnUse"
       gradientTransform="translate(-19.79661,0.81355932)" />
    <linearGradient
       x1="12.910966"
       y1="12.65731"
       x2="2.5539448"
       y2="2.3002884"
       id="linearGradient3778"
       xlink:href="#linearGradient3918"
       gradientUnits="userSpaceOnUse" />
  </defs>
  <metadata
     id="metadata7">
    <rdf:RDF>
      <cc:Work
         rdf:about="">
        <dc:format>image/svg+xml</dc:format>
        <dc:type
           rdf:resource="http://purl.org/dc/dcmitype/StillImage" />
        <dc:title></dc:title>
      </cc:Work>
    </rdf:RDF>
  </metadata>
  <path
     d="m 4.6979002,2.4601695 c 0.8462374,0 2.9314717,0 3.7007704,0 3.0514234,0 5.1016944,1.8279111 5.1016944,4.5677966 0,3.7372879 0,3.5652539 0,3.5652539 l 1.961303,0 -3.385031,2.907109 -3.3821817,-2.914417 1.8991307,0 c 0,0 0,-1.1257425 0,-2.8460815 0,-1.7930855 -0.486064,-2.4535675 -2.0470215,-2.4917288 -0.7905159,-0.019326 -1.8420585,0 -2.6469254,0 -1.8210494,0 -2.3671716,0.8090893 -2.3671716,2.4874805 0,1.9656844 -5.146e-4,4.7644178 -5.146e-4,4.7644178 l -3.01067261,0 c 0,0 -0.0018,-3.4603212 -0.0018,-5.4709113 0,-2.7181508 2.20832101,-4.5689192 4.17841991,-4.5689192 z"
     id="path26"
     style="fill:url(#linearGradient3828);fill-opacity:1;stroke:url(#linearGradient3778);stroke-linejoin:round" />
  <rect
     width="4.0103898"
     height="1.9948052"
     x="5.0159998"
     y="12.987013"
     id="rect3800"
     style="fill:url(#linearGradient3836);fill-opacity:1;stroke:none" />
</svg>
