<?xml version="1.0" encoding="UTF-8" standalone="no"?>
<!-- See license.txt for terms of usage -->
<svg
   xmlns:dc="http://purl.org/dc/elements/1.1/"
   xmlns:cc="http://creativecommons.org/ns#"
   xmlns:rdf="http://www.w3.org/1999/02/22-rdf-syntax-ns#"
   xmlns:svg="http://www.w3.org/2000/svg"
   xmlns="http://www.w3.org/2000/svg"
   version="1.1"
   width="14"
   height="14"
   id="svg2">
  <defs
     id="defs4" />
  <metadata
     id="metadata7">
    <rdf:RDF>
      <cc:Work
         rdf:about="">
        <dc:format>image/svg+xml</dc:format>
        <dc:type
           rdf:resource="http://purl.org/dc/dcmitype/StillImage" />
        <dc:title></dc:title>
      </cc:Work>
    </rdf:RDF>
  </metadata>
  <g
     transform="translate(0,-1038.3622)"
     id="layer1">
    <path
       d="m 9.5089285,6.0200891 a 2.4441965,2.4441965 0 1 1 -4.8883929,0 2.4441965,2.4441965 0 1 1 4.8883929,0 z"
       transform="matrix(2.7634691,0,0,2.7634692,-12.52317,1028.7259)"
       id="path2989"
       style="fill:#ffff00;fill-opacity:1;stroke:#a0a000;stroke-width:0.17770305;stroke-linecap:round;stroke-linejoin:round;stroke-miterlimit:4;stroke-opacity:1;stroke-dasharray:none" />
    <g
       transform="translate(-9.9989433e-8,-0.20315)"
       id="g3802">
      <path
         d="m 5.3600206,1049.4025 c -2e-6,-0.3548 0.1419377,-0.6425 0.4258191,-0.8628 0.283877,-0.2202 0.6790061,-0.3305 1.1853888,-0.3305 0.4987032,0 0.9015047,0.1066 1.208406,0.3214 0.3068917,0.2142 0.4603399,0.5017 0.4603451,0.8628 -5.2e-6,0.3795 -0.1419448,0.6731 -0.4258193,0.8812 -0.283884,0.202 -0.6790131,0.303 -1.1853887,0.303 -0.5293999,0 -0.9398739,-0.098 -1.2314232,-0.2938 -0.291554,-0.1958 -0.4373298,-0.4896 -0.4373278,-0.8813 z"
         id="path3798"
         style="font-size:17.0612011px;font-style:normal;font-variant:normal;font-weight:normal;font-stretch:normal;line-height:125%;letter-spacing:0px;word-spacing:0px;fill:#000000;fill-opacity:1;stroke:none;" />
      <path
         d="m 7.7883411,1047.3892 -1.5766821,0 c -0.038365,-0.2202 -0.084399,-0.4725 -0.1381036,-0.7572 -0.046036,-0.2845 -0.092071,-0.552 -0.1381036,-0.8025 -0.1150881,-0.645 -0.2109938,-1.3565 -0.2877157,-2.1345 -0.069055,-0.7779 -0.1035804,-1.4248 -0.1035777,-1.9409 l 0,-0.2903 c -2e-6,-0.3377 0.088231,-0.573 0.2646985,-0.7059 0.1841355,-0.1366 0.5600837,-0.2048 1.1278455,-0.2048 0.6521515,0 1.0664618,0.068 1.2429319,0.2048 0.1841332,0.1329 0.2762021,0.3454 0.276207,0.6375 l 0,0.3587 c -4.9e-6,0.5161 -0.038366,1.1555 -0.1150867,1.9181 -0.069057,0.7628 -0.168798,1.4819 -0.2992244,2.1573 -0.038366,0.2201 -0.084401,0.4838 -0.1381036,0.7912 -0.046039,0.3074 -0.084401,0.5635 -0.1150868,0.7684 z"
         id="path3772"
         style="font-size:17.0612011px;font-style:normal;font-variant:normal;font-weight:normal;font-stretch:normal;line-height:125%;letter-spacing:0px;word-spacing:0px;fill:#000000;fill-opacity:1;stroke:none;" />
    </g>
  </g>
</svg>
