<?xml version="1.0" encoding="UTF-8" standalone="no"?>
<!-- See license.txt for terms of usage -->
<svg
   xmlns:dc="http://purl.org/dc/elements/1.1/"
   xmlns:cc="http://creativecommons.org/ns#"
   xmlns:rdf="http://www.w3.org/1999/02/22-rdf-syntax-ns#"
   xmlns:svg="http://www.w3.org/2000/svg"
   xmlns="http://www.w3.org/2000/svg"
   xmlns:xlink="http://www.w3.org/1999/xlink"
   version="1.1"
   width="59"
   height="70"
   id="svg2">
  <metadata
     id="metadata8">
    <rdf:RDF>
      <cc:Work
         rdf:about="">
        <dc:format>image/svg+xml</dc:format>
        <dc:type
           rdf:resource="http://purl.org/dc/dcmitype/StillImage" />
        <dc:title></dc:title>
      </cc:Work>
    </rdf:RDF>
  </metadata>
  <defs
     id="defs6">
    <linearGradient
       id="linearGradient3769">
      <stop
         id="stop3771"
         style="stop-color:#00a5d8;stop-opacity:1"
         offset="0" />
      <stop
         id="stop3779"
         style="stop-color:#00bbf8;stop-opacity:1"
         offset="0.38157427" />
      <stop
         id="stop3777"
         style="stop-color:#4fe0ff;stop-opacity:1"
         offset="0.96372437" />
      <stop
         id="stop3773"
         style="stop-color:#ffffff;stop-opacity:1"
         offset="1" />
    </linearGradient>
    <linearGradient
       id="linearGradient3761">
      <stop
         id="stop3763"
         style="stop-color:#0096c5;stop-opacity:1"
         offset="0" />
      <stop
         id="stop3765"
         style="stop-color:#0097c6;stop-opacity:1"
         offset="1" />
    </linearGradient>
    <linearGradient
       x1="27.127188"
       y1="4.0462222"
       x2="27.127188"
       y2="58.563183"
       id="linearGradient3767"
       xlink:href="#linearGradient3761"
       gradientUnits="userSpaceOnUse" />
    <linearGradient
       x1="20.570379"
       y1="55.472168"
       x2="20.570379"
       y2="4.9322629"
       id="linearGradient3775"
       xlink:href="#linearGradient3769"
       gradientUnits="userSpaceOnUse" />
    <filter
       x="-0.13152768"
       y="-0.11033016"
       width="1.2630554"
       height="1.2206603"
       color-interpolation-filters="sRGB"
       id="filter3843">
      <feGaussianBlur
         id="feGaussianBlur3845"
         stdDeviation="2.5671875" />
    </filter>
  </defs>
  <path
     d="m 22.59375,7.5932501 c -5.54,0 -10,4.4599999 -10,9.9999999 l 0,24.8125 c 0,0.29398 0.03789,0.587607 0.0625,0.875 L 3.5625,63.437 25.09375,52.40575 l 15.3125,0 c 5.54,0 10,-4.459999 10,-10 l 0,-24.8125 c 0,-5.54 -4.46,-9.9999999 -10,-9.9999999 l -17.8125,0 z"
     id="rect2987-5"
     style="opacity:0.35;fill:#000000;fill-opacity:1;stroke:#000000;stroke-width:1;stroke-linejoin:round;stroke-miterlimit:4;stroke-opacity:1;stroke-dasharray:none;filter:url(#filter3843)" />
  <path
     d="m 22.59375,3.59375 c -5.54,0 -10,4.4599995 -10,10 l 0,24.8125 c 0,0.29398 0.03789,0.587607 0.0625,0.875 L 3.5625,59.4375 25.09375,48.40625 l 15.3125,0 c 5.54,0 10,-4.459999 10,-10 l 0,-24.8125 c 0,-5.5400005 -4.46,-10 -10,-10 l -17.8125,0 z"
     id="rect2987"
     style="fill:url(#linearGradient3775);fill-opacity:1;stroke:url(#linearGradient3767);stroke-width:1;stroke-linejoin:round;stroke-miterlimit:4;stroke-opacity:1;stroke-dasharray:none" />
</svg>
