<?xml version="1.0" encoding="UTF-8" standalone="no"?>
<!-- See license.txt for terms of usage -->
<svg
   xmlns:dc="http://purl.org/dc/elements/1.1/"
   xmlns:cc="http://creativecommons.org/ns#"
   xmlns:rdf="http://www.w3.org/1999/02/22-rdf-syntax-ns#"
   xmlns:svg="http://www.w3.org/2000/svg"
   xmlns="http://www.w3.org/2000/svg"
   xmlns:xlink="http://www.w3.org/1999/xlink"
   version="1.1"
   width="59"
   height="70"
   id="svg2">
  <metadata
     id="metadata8">
    <rdf:RDF>
      <cc:Work
         rdf:about="">
        <dc:format>image/svg+xml</dc:format>
        <dc:type
           rdf:resource="http://purl.org/dc/dcmitype/StillImage" />
        <dc:title></dc:title>
      </cc:Work>
    </rdf:RDF>
  </metadata>
  <defs
     id="defs6">
    <linearGradient
       id="linearGradient3916">
      <stop
         id="stop3918"
         style="stop-color:#ffffff;stop-opacity:1"
         offset="0" />
      <stop
         id="stop3920"
         style="stop-color:#ffffff;stop-opacity:0"
         offset="1" />
    </linearGradient>
    <linearGradient
       id="linearGradient3761">
      <stop
         id="stop3763"
         style="stop-color:#00a4d6;stop-opacity:1"
         offset="0" />
      <stop
         id="stop3771"
         style="stop-color:#00bdf8;stop-opacity:1"
         offset="0.26573262" />
      <stop
         id="stop3769"
         style="stop-color:#1bd9fe;stop-opacity:1"
         offset="0.66957635" />
      <stop
         id="stop3765"
         style="stop-color:#a1ecfe;stop-opacity:1"
         offset="1" />
    </linearGradient>
    <linearGradient
       x1="28.818182"
       y1="57.090908"
       x2="28.818182"
       y2="5.0905914"
       id="linearGradient3767"
       xlink:href="#linearGradient3761"
       gradientUnits="userSpaceOnUse" />
    <linearGradient
       id="linearGradient3761-7">
      <stop
         id="stop3763-4"
         style="stop-color:#00a4d6;stop-opacity:1"
         offset="0" />
      <stop
         id="stop3771-0"
         style="stop-color:#00bdf8;stop-opacity:1"
         offset="0.26573262" />
      <stop
         id="stop3769-9"
         style="stop-color:#1bd9fe;stop-opacity:1"
         offset="0.66957635" />
      <stop
         id="stop3765-4"
         style="stop-color:#a1ecfe;stop-opacity:1"
         offset="1" />
    </linearGradient>
    <linearGradient
       id="linearGradient3773-8">
      <stop
         id="stop3775-2"
         style="stop-color:#0096c5;stop-opacity:1"
         offset="0" />
      <stop
         id="stop3777-4"
         style="stop-color:#009cc9;stop-opacity:1"
         offset="1" />
    </linearGradient>
    <linearGradient
       x1="28.818182"
       y1="57.090908"
       x2="28.818182"
       y2="5.0905914"
       id="linearGradient3802"
       xlink:href="#linearGradient3761-7"
       gradientUnits="userSpaceOnUse"
       gradientTransform="translate(-0.53125003,0.50000003)" />
    <linearGradient
       x1="33.545456"
       y1="58.363636"
       x2="33.545456"
       y2="4.3636365"
       id="linearGradient3804"
       xlink:href="#linearGradient3773-8"
       gradientUnits="userSpaceOnUse"
       gradientTransform="translate(-0.53125003,0.50000003)" />
    <linearGradient
       x1="33.545456"
       y1="58.363636"
       x2="33.545456"
       y2="4.3636365"
       id="linearGradient3841"
       xlink:href="#linearGradient3773-8"
       gradientUnits="userSpaceOnUse"
       gradientTransform="translate(-0.53125003,0.50000003)" />
    <filter
       color-interpolation-filters="sRGB"
       id="filter3848">
      <feGaussianBlur
         id="feGaussianBlur3850"
         stdDeviation="0.35030378" />
    </filter>
    <linearGradient
       id="linearGradient3761-1">
      <stop
         id="stop3763-7"
         style="stop-color:#00a4d6;stop-opacity:1"
         offset="0" />
      <stop
         id="stop3771-1"
         style="stop-color:#00bdf8;stop-opacity:1"
         offset="0.26573262" />
      <stop
         id="stop3769-1"
         style="stop-color:#1bd9fe;stop-opacity:1"
         offset="0.66957635" />
      <stop
         id="stop3765-5"
         style="stop-color:#a1ecfe;stop-opacity:1"
         offset="1" />
    </linearGradient>
    <linearGradient
       id="linearGradient3773-7">
      <stop
         id="stop3775-6"
         style="stop-color:#0096c5;stop-opacity:1"
         offset="0" />
      <stop
         id="stop3777-1"
         style="stop-color:#009cc9;stop-opacity:1"
         offset="1" />
    </linearGradient>
    <linearGradient
       x1="28.818182"
       y1="57.090908"
       x2="28.818182"
       y2="5.0905914"
       id="linearGradient3873"
       xlink:href="#linearGradient3761-1"
       gradientUnits="userSpaceOnUse" />
    <linearGradient
       x1="33.545456"
       y1="58.363636"
       x2="33.545456"
       y2="4.3636365"
       id="linearGradient3875"
       xlink:href="#linearGradient3773-7"
       gradientUnits="userSpaceOnUse" />
    <linearGradient
       x1="33.545456"
       y1="58.363636"
       x2="33.545456"
       y2="4.3636365"
       id="linearGradient3912"
       xlink:href="#linearGradient3773-7"
       gradientUnits="userSpaceOnUse" />
    <linearGradient
       x1="44.454544"
       y1="16.454546"
       x2="50.399193"
       y2="26.750978"
       id="linearGradient3914"
       xlink:href="#linearGradient3916"
       gradientUnits="userSpaceOnUse" />
    <filter
       x="-0.13377319"
       y="-0.10879821"
       width="1.2675464"
       height="1.2175964"
       color-interpolation-filters="sRGB"
       id="filter3964">
      <feGaussianBlur
         id="feGaussianBlur3966"
         stdDeviation="2.534375" />
    </filter>
  </defs>
  <path
     d="M 3.5312499,6.59375 13.03125,26.75 C 13.01318,26.996761 13,27.24847 13,27.5 l 0,25 c 0,5.54 4.46,10 10,10 l 16,0 c 5.54,0 10,-4.46 10,-10 l 0,-25 c 0,-5.54 -4.46,-10 -10,-10 L 24.84375,17.5 3.5312499,6.59375 z"
     id="rect2987-49"
     style="opacity:0.35;fill:#000000;fill-opacity:1;stroke:none;filter:url(#filter3964)" />
  <path
     d="m 3.53125,2.59375 9.5,20.15625 C 13.013179,22.996761 13,23.24847 13,23.5 l 0,25 c 0,5.54 4.46,10 10,10 l 16,0 c 5.54,0 10,-4.46 10,-10 l 0,-25 c 0,-5.54 -4.46,-10 -10,-10 L 24.84375,13.5 3.53125,2.59375 z"
     id="rect2987"
     style="fill:url(#linearGradient3767);fill-opacity:1;stroke:none" />
  <path
     d="M 3.8125,2.96875 5.25,4.78125 24.09375,14.4375 c 0.06685,0.0372 0.142337,0.05877 0.21875,0.0625 l 14.15625,0 c 5.271649,0 9.5,4.228351 9.5,9.5 0,5.185039 1,5.1436 1,0 0,-5.808351 -4.691649,-10.5 -10.5,-10.5 l -14.0625,0 z"
     id="rect2987-5"
     style="font-size:medium;font-style:normal;font-variant:normal;font-weight:normal;font-stretch:normal;text-indent:0;text-align:start;text-decoration:none;line-height:normal;letter-spacing:normal;word-spacing:normal;text-transform:none;direction:ltr;block-progression:tb;writing-mode:lr-tb;text-anchor:start;baseline-shift:baseline;color:#000000;fill:url(#linearGradient3914);fill-opacity:1;fill-rule:nonzero;stroke:none;stroke-width:0.99999994;marker:none;visibility:visible;display:inline;overflow:visible;filter:url(#filter3848);enable-background:accumulate;font-family:Sans;-inkscape-font-specification:Sans" />
  <path
     d="M 3.40625,2.09375 A 0.50004997,0.50004997 0 0 0 3.09375,2.8125 l 9.4375,20 C 12.515977,23.037928 12.5,23.263233 12.5,23.5 l 0,25 C 12.5,54.308351 17.191649,59 23,59 l 16,0 c 5.808351,0 10.5,-4.691649 10.5,-10.5 l 0,-25 C 49.5,17.691649 44.808351,13 39,13 L 24.9375,13 3.75,2.15625 A 0.50004997,0.50004997 0 0 0 3.40625,2.09375 z M 4.59375,3.6875 24.625,13.9375 A 0.50004997,0.50004997 0 0 0 24.84375,14 L 39,14 c 5.271649,0 9.5,4.228351 9.5,9.5 l 0,25 c 0,5.271649 -4.228351,9.5 -9.5,9.5 l -16,0 c -5.271649,0 -9.5,-4.228351 -9.5,-9.5 l 0,-25 c 0,-0.234065 0.0137,-0.47903 0.03125,-0.71875 a 0.50004997,0.50004997 0 0 0 -0.0625,-0.25 L 4.59375,3.6875 z"
     id="rect2987-4"
     style="font-size:medium;font-style:normal;font-variant:normal;font-weight:normal;font-stretch:normal;text-indent:0;text-align:start;text-decoration:none;line-height:normal;letter-spacing:normal;word-spacing:normal;text-transform:none;direction:ltr;block-progression:tb;writing-mode:lr-tb;text-anchor:start;baseline-shift:baseline;color:#000000;fill:url(#linearGradient3912);fill-opacity:1;fill-rule:nonzero;stroke:none;stroke-width:0.99999994;marker:none;visibility:visible;display:inline;overflow:visible;enable-background:accumulate;font-family:Sans;-inkscape-font-specification:Sans" />
</svg>
