<?xml version="1.0" encoding="UTF-8" standalone="no"?>
<!-- See license.txt for terms of usage -->
<svg
   xmlns:dc="http://purl.org/dc/elements/1.1/"
   xmlns:cc="http://creativecommons.org/ns#"
   xmlns:rdf="http://www.w3.org/1999/02/22-rdf-syntax-ns#"
   xmlns:svg="http://www.w3.org/2000/svg"
   xmlns="http://www.w3.org/2000/svg"
   xmlns:xlink="http://www.w3.org/1999/xlink"
   version="1.1"
   width="16"
   height="16"
   id="svg2">
  <defs
     id="defs4">
    <linearGradient
       id="linearGradient3786">
      <stop
         id="stop3788"
         style="stop-color:#f2451d;stop-opacity:1"
         offset="0" />
      <stop
         id="stop3794"
         style="stop-color:#f01428;stop-opacity:0.80000001"
         offset="0.10147162" />
      <stop
         id="stop3796"
         style="stop-color:#de8493;stop-opacity:1"
         offset="0.89664072" />
      <stop
         id="stop3790"
         style="stop-color:#efc3cc;stop-opacity:1"
         offset="1" />
    </linearGradient>
    <linearGradient
       id="linearGradient3770">
      <stop
         id="stop3772"
         style="stop-color:#520e0d;stop-opacity:1"
         offset="0" />
      <stop
         id="stop3774"
         style="stop-color:#c4181d;stop-opacity:1"
         offset="1" />
    </linearGradient>
    <linearGradient
       x1="7.2311687"
       y1="1051.3232"
       x2="7.2311687"
       y2="1037.4011"
       id="linearGradient3776"
       xlink:href="#linearGradient3770"
       gradientUnits="userSpaceOnUse" />
    <linearGradient
       x1="8.7688313"
       y1="1049.931"
       x2="8.7688313"
       y2="1038.6682"
       id="linearGradient3792"
       xlink:href="#linearGradient3786"
       gradientUnits="userSpaceOnUse" />
    <filter
       x="-0.23999999"
       y="-0.23999999"
       width="1.48"
       height="1.48"
       color-interpolation-filters="sRGB"
       id="filter3841">
      <feGaussianBlur
         id="feGaussianBlur3843"
         stdDeviation="0.7125" />
    </filter>
    <filter
       x="-0.23999999"
       y="-0.23999999"
       width="1.48"
       height="1.48"
       color-interpolation-filters="sRGB"
       id="filter3901">
      <feGaussianBlur
         id="feGaussianBlur3903"
         stdDeviation="0.8" />
    </filter>
  </defs>
  <metadata
     id="metadata7">
    <rdf:RDF>
      <cc:Work
         rdf:about="">
        <dc:format>image/svg+xml</dc:format>
        <dc:type
           rdf:resource="http://purl.org/dc/dcmitype/StillImage" />
        <dc:title></dc:title>
      </cc:Work>
    </rdf:RDF>
  </metadata>
  <g
     transform="translate(0,-1036.3622)"
     id="layer1">
    <rect
       width="13"
       height="13"
       rx="2"
       ry="2"
       x="1.5"
       y="1037.8622"
       id="rect3768"
       style="fill:url(#linearGradient3792);fill-opacity:1;stroke:url(#linearGradient3776);stroke-width:1;stroke-linejoin:round;stroke-miterlimit:4;stroke-opacity:1;stroke-dasharray:none" />
    <path
       d="m 6.5,1041.3622 0,2 -2,0 0,6 6,0 0,-2 2,0 0,-6 -6,0 z m 1,1 4,0 0,4 -1,0 0,-3 -3,0 0,-1 z m -2,2 4,0 0,4 -4,0 0,-4 z"
       id="rect3856-1"
       style="opacity:0.4;fill:#000000;fill-opacity:1;stroke:none;filter:url(#filter3901)" />
    <path
       d="m 6,4 0,2 -2,0 0,6 6,0 0,-2 2,0 0,-6 -6,0 z M 7,5 11,5 11,9 10,9 10,6 7,6 7,5 z M 5,7 9,7 9,11 5,11 5,7 z"
       transform="translate(0,1036.3622)"
       id="rect3856"
       style="fill:#ffffff;fill-opacity:1;stroke:none" />
  </g>
</svg>
