<?xml version="1.0" encoding="UTF-8" standalone="no"?>
<!-- See license.txt for terms of usage -->
<svg
   xmlns:dc="http://purl.org/dc/elements/1.1/"
   xmlns:cc="http://creativecommons.org/ns#"
   xmlns:rdf="http://www.w3.org/1999/02/22-rdf-syntax-ns#"
   xmlns:svg="http://www.w3.org/2000/svg"
   xmlns="http://www.w3.org/2000/svg"
   version="1.1"
   width="13"
   height="13"
   id="svg2">
  <metadata
     id="metadata8">
    <rdf:RDF>
      <cc:Work
         rdf:about="">
        <dc:format>image/svg+xml</dc:format>
        <dc:type
           rdf:resource="http://purl.org/dc/dcmitype/StillImage" />
        <dc:title></dc:title>
      </cc:Work>
    </rdf:RDF>
  </metadata>
  <defs
     id="defs6">
    <filter
       x="-0.12"
       y="-0.12"
       width="1.24"
       height="1.24"
       color-interpolation-filters="sRGB"
       id="filter3804">
      <feGaussianBlur
         stdDeviation="0.3171875"
         id="feGaussianBlur3806" />
    </filter>
    <filter id="darken">
        <feComponentTransfer>
            <feFuncR type="linear" intercept="-0.1" slope="1"/>
            <feFuncG type="linear" intercept="-0.1" slope="1"/>
            <feFuncB type="linear" intercept="-0.1" slope="1"/>
        </feComponentTransfer>
    </filter>
  </defs>
  <path
     d="m 11.564935,6.0103898 a 5.638961,5.638961 0 1 1 -11.27792195,0 5.638961,5.638961 0 1 1 11.27792195,0 z"
     transform="matrix(1.0640258,0,0,1.0640258,-0.30538929,-0.39520964)"
     id="path2987"
     style="fill:#7f7f7f;fill-opacity:0.70196078;stroke:none;filter:url(#darken)" />
  <path
     d="m 3.5,3.84325 -0.6875,0.6875 2.5,2.46875 -2.5,2.5 L 3.5,10.187 6,7.687 8.46875,10.187 9.15625,9.4995 6.6875,6.9995 9.15625,4.53075 8.46875,3.84325 6,6.312 3.5,3.84325 z"
     id="rect3757-7"
     style="opacity:0.25;fill:#000000;fill-opacity:1;stroke:none;filter:url(#filter3804)" />
  <path
     d="M 3.5,2.84375 2.8125,3.53125 5.3125,6 2.8125,8.5 3.5,9.1875 6,6.6875 8.46875,9.1875 9.15625,8.5 6.6875,6 9.15625,3.53125 8.46875,2.84375 6,5.3125 3.5,2.84375 z"
     id="rect3757"
     style="fill:#eaeaea;fill-opacity:1;stroke:none;filter:url(#darken)" />
</svg>
