<?xml version="1.0" encoding="UTF-8" standalone="no"?>
<!-- See license.txt for terms of usage -->
<svg
   xmlns:dc="http://purl.org/dc/elements/1.1/"
   xmlns:cc="http://creativecommons.org/ns#"
   xmlns:rdf="http://www.w3.org/1999/02/22-rdf-syntax-ns#"
   xmlns:svg="http://www.w3.org/2000/svg"
   xmlns="http://www.w3.org/2000/svg"
   version="1.1"
   width="13"
   height="13"
   id="svg2">
  <metadata
     id="metadata8">
    <rdf:RDF>
      <cc:Work
         rdf:about="">
        <dc:format>image/svg+xml</dc:format>
        <dc:type
           rdf:resource="http://purl.org/dc/dcmitype/StillImage" />
        <dc:title></dc:title>
      </cc:Work>
    </rdf:RDF>
  </metadata>
  <defs
     id="defs6">
    <filter
       x="-0.22"
       y="-0.264"
       width="1.4400001"
       height="1.528"
       id="filter3887"
       style="color-interpolation-filters:sRGB">
      <feGaussianBlur
         stdDeviation="0.55"
         id="feGaussianBlur3889" />
    </filter>
    <filter id="darken">
        <feComponentTransfer>
            <feFuncR type="linear" intercept="-0.1" slope="1"/>
            <feFuncG type="linear" intercept="-0.1" slope="1"/>
            <feFuncB type="linear" intercept="-0.1" slope="1"/>
        </feComponentTransfer>
    </filter>
  </defs>
  <path
     d="m 11.564935,6.0103898 a 5.638961,5.638961 0 1 1 -11.27792195,0 A 5.638961,5.638961 0 1 1 11.564935,6.0103898 Z"
     transform="matrix(1.0640258,0,0,1.0640258,-0.30538929,-0.39520964)"
     id="path2987"
     style="fill:#7f7f7f;fill-opacity:0.70196078;stroke:none;filter:url(#darken)" />
  <path
     d="M 3,4 3,5 9,5 9,4 3,4 Z M 3,6 3,7 9,7 9,6 3,6 Z M 3,8 3,9 9,9 9,8 3,8 Z"
     id="rect3819-4"
     style="opacity:0.25;fill:#000000;fill-opacity:1;stroke:none;filter:url(#filter3887)" />
  <path
     d="M 3,3 3,4 9,4 9,3 3,3 Z M 3,5 3,6 9,6 9,5 3,5 Z M 3,7 3,8 9,8 9,7 3,7 Z"
     id="rect3819"
     style="fill:#ffffff;fill-opacity:1;stroke:none;filter:url(#darken)" />
</svg>
