<?xml version="1.0" encoding="UTF-8" standalone="no"?>
<!-- See license.txt for terms of usage -->
<svg
   xmlns:dc="http://purl.org/dc/elements/1.1/"
   xmlns:cc="http://creativecommons.org/ns#"
   xmlns:rdf="http://www.w3.org/1999/02/22-rdf-syntax-ns#"
   xmlns:svg="http://www.w3.org/2000/svg"
   xmlns="http://www.w3.org/2000/svg"
   version="1.1"
   width="13"
   height="13"
   id="svg2">
  <metadata
     id="metadata8">
    <rdf:RDF>
      <cc:Work
         rdf:about="">
        <dc:format>image/svg+xml</dc:format>
        <dc:type
           rdf:resource="http://purl.org/dc/dcmitype/StillImage" />
        <dc:title></dc:title>
      </cc:Work>
    </rdf:RDF>
  </metadata>
  <defs
     id="defs6">
    <filter
       x="-0.12"
       y="-0.12"
       width="1.24"
       height="1.24"
       color-interpolation-filters="sRGB"
       id="filter3804">
      <feGaussianBlur
         id="feGaussianBlur3806"
         stdDeviation="0.3171875" />
    </filter>
    <filter
       x="-0.22"
       y="-0.264"
       width="1.4400001"
       height="1.528"
       color-interpolation-filters="sRGB"
       id="filter3887">
      <feGaussianBlur
         id="feGaussianBlur3889"
         stdDeviation="0.55" />
    </filter>
  </defs>
  <path
     d="m 11.564935,6.0103898 a 5.6389608,5.6389608 0 1 1 -11.27792195,0 5.6389608,5.6389608 0 1 1 11.27792195,0 z"
     transform="matrix(1.0640258,0,0,1.0640258,-0.30538929,-0.39520964)"
     id="path2987"
     style="fill:#7f7f7f;fill-opacity:0.70196078;stroke:none" />
  <path
     d="M 3,4 3,5 9,5 9,4 3,4 z M 3,6 3,7 9,7 9,6 3,6 z M 3,8 3,9 9,9 9,8 3,8 z"
     id="rect3819-4"
     style="opacity:0.25;fill:#000000;fill-opacity:1;stroke:none;filter:url(#filter3887)" />
  <path
     d="M 3,3 3,4 9,4 9,3 3,3 z M 3,5 3,6 9,6 9,5 3,5 z M 3,7 3,8 9,8 9,7 3,7 z"
     id="rect3819"
     style="fill:#ffffff;fill-opacity:1;stroke:none" />
</svg>
