<?xml version="1.0" encoding="UTF-8" standalone="no"?>
<!-- See license.txt for terms of usage -->
<svg
   xmlns:dc="http://purl.org/dc/elements/1.1/"
   xmlns:cc="http://creativecommons.org/ns#"
   xmlns:rdf="http://www.w3.org/1999/02/22-rdf-syntax-ns#"
   xmlns:svg="http://www.w3.org/2000/svg"
   xmlns="http://www.w3.org/2000/svg"
   version="1.1"
   width="13"
   height="13"
   id="svg2">
  <metadata
     id="metadata8">
    <rdf:RDF>
      <cc:Work
         rdf:about="">
        <dc:format>image/svg+xml</dc:format>
        <dc:type
           rdf:resource="http://purl.org/dc/dcmitype/StillImage" />
        <dc:title></dc:title>
      </cc:Work>
    </rdf:RDF>
  </metadata>
  <defs
     id="defs6">
    <filter
       x="-0.18970588"
       y="-0.32658228"
       width="1.3794118"
       height="1.6531646"
       color-interpolation-filters="sRGB"
       id="filter3809">
      <feGaussianBlur
         stdDeviation="0.671875"
         id="feGaussianBlur3811" />
    </filter>
    <filter
       x="-0.32658228"
       y="-0.18970588"
       width="1.6531645"
       height="1.3794118"
       color-interpolation-filters="sRGB"
       id="filter3755">
      <feGaussianBlur
         id="feGaussianBlur3757"
         stdDeviation="0.67187499" />
    </filter>
  </defs>
  <path
     d="m 11.564935,6.0103898 a 5.638961,5.638961 0 1 1 -11.27792195,0 5.638961,5.638961 0 1 1 11.27792195,0 z"
     transform="matrix(1.0640258,0,0,1.0640258,-0.30538929,-0.39520964)"
     id="path2987"
     style="fill:#7f7f7f;fill-opacity:0.70196078;stroke:none" />
  <path
     d="m 3.53125,10.53125 0.6875,0.71875 4.25,-4.2499998 -4.25,-4.25 -0.6875,0.71875 3.5312499,3.53125 z"
     transform="matrix(-1,0,0,1,12,0)"
     id="rect2998-7"
     style="opacity:0.25;fill:#000000;fill-opacity:1;stroke:none;filter:url(#filter3755)" />
  <path
     d="M 8.46875,9.5312502 7.78125,10.25 l -4.25,-4.2499998 4.25,-4.25 0.6875,0.71875 -3.53125,3.53125 z"
     id="rect2998"
     style="fill:#ffffff;fill-opacity:1;stroke:none" />
</svg>
