<?xml version="1.0" encoding="UTF-8" standalone="no"?>
<!-- See license.txt for terms of usage -->
<svg
   xmlns:dc="http://purl.org/dc/elements/1.1/"
   xmlns:cc="http://creativecommons.org/ns#"
   xmlns:rdf="http://www.w3.org/1999/02/22-rdf-syntax-ns#"
   xmlns:svg="http://www.w3.org/2000/svg"
   xmlns="http://www.w3.org/2000/svg"
   version="1.1"
   width="13"
   height="13"
   id="svg2">
  <metadata
     id="metadata8">
    <rdf:RDF>
      <cc:Work
         rdf:about="">
        <dc:format>image/svg+xml</dc:format>
        <dc:type
           rdf:resource="http://purl.org/dc/dcmitype/StillImage" />
        <dc:title></dc:title>
      </cc:Work>
    </rdf:RDF>
  </metadata>
  <defs
     id="defs6">
    <filter
       x="-0.18970588"
       y="-0.32658228"
       width="1.3794118"
       height="1.6531646"
       color-interpolation-filters="sRGB"
       id="filter3773">
      <feGaussianBlur
         id="feGaussianBlur3775"
         stdDeviation="0.671875" />
    </filter>
    <filter
       x="-0.23999999"
       y="-0.24000001"
       width="1.48"
       height="1.48"
       color-interpolation-filters="sRGB"
       id="filter3780">
      <feGaussianBlur
         stdDeviation="0.64999998"
         id="feGaussianBlur3782" />
    </filter>
    <filter
       x="-0.2831966"
       y="-0.20823713"
       width="1.5663933"
       height="1.4164743"
       color-interpolation-filters="sRGB"
       id="filter3837">
      <feGaussianBlur
         stdDeviation="0.57915569"
         id="feGaussianBlur3839" />
    </filter>
  </defs>
  <path
     d="m 12,6.0000002 a 6,6 0 0 1 -12,0 6,6 0 1 1 12,0 z"
     id="path2987"
     style="fill:#7f7f7f;fill-opacity:0.70196078;stroke:none" />
  <path
     d="M 8.437902,4.5620977 C 7.698476,3.8226714 6.793836,3.5427784 6.424123,3.9124915 c -0.215211,0.2152103 -0.193139,0.6013039 0,1.0393702 C 6.286302,5.0281206 6.15432,5.1242237 6.034359,5.2441844 L 5.09243,6.1861133 C 5.06491,6.2136343 5.03647,6.2386173 5.01123,6.2673143 4.4042107,5.9499511 3.8424578,5.8770296 3.5496145,6.169873 3.1629244,6.556563 3.3858905,7.4256712 4.0205792,8.2323732 L 2.7499999,10.25 4.7676267,8.9794205 C 5.574328,9.6141088 6.443437,9.8370753 6.830127,9.4503854 7.12297,9.1575418 7.050049,8.5957895 6.732687,7.988771 6.761387,7.963527 6.786367,7.935087 6.813887,7.90757 L 7.755815,6.9656411 C 7.875776,6.8456803 7.97188,6.7136983 8.048139,6.5758772 c 0.438066,0.1931388 0.82416,0.2152105 1.03937,4e-7 C 9.457222,6.2061644 9.177329,5.3015238 8.437902,4.562098 z"
     id="path3009-1"
     style="opacity:0.25;fill:#000000;fill-opacity:1;stroke:none;filter:url(#filter3780)" />
  <path
     d="M 8.4379023,3.5620977 C 7.6984758,2.8226714 6.7938359,2.5427784 6.4241228,2.9124915 6.2089125,3.1277018 6.2309836,3.5137954 6.4241227,3.9518617 6.2863022,4.0281206 6.1543196,4.1242237 6.0343589,4.2441844 L 5.0924301,5.1861133 c -0.027521,0.027521 -0.055961,0.052504 -0.081201,0.081201 C 4.4042107,4.9499511 3.8424578,4.8770296 3.5496145,5.169873 3.1629244,5.556563 3.3858905,6.4256712 4.0205792,7.2323732 L 2.7499999,9.25 4.7676267,7.9794205 C 5.574328,8.6141088 6.4434366,8.8370753 6.8301267,8.4503854 7.1229701,8.1575418 7.0500491,7.5957895 6.7326857,6.988771 6.7613867,6.963527 6.7863697,6.935087 6.8138867,6.90757 L 7.755815,5.9656411 C 7.8757762,5.8456803 7.9718796,5.7136983 8.0481386,5.5758772 8.4862047,5.769016 8.8722987,5.7910877 9.0875087,5.5758776 9.4572223,5.2061644 9.1773287,4.3015238 8.4379023,3.562098 z"
     id="path3009"
     style="fill:#ffffff;fill-opacity:1;stroke:none" />
</svg>
