<?xml version="1.0" encoding="UTF-8" standalone="no"?>
<!-- See license.txt for terms of usage -->
<svg
   xmlns:dc="http://purl.org/dc/elements/1.1/"
   xmlns:cc="http://creativecommons.org/ns#"
   xmlns:rdf="http://www.w3.org/1999/02/22-rdf-syntax-ns#"
   xmlns:svg="http://www.w3.org/2000/svg"
   xmlns="http://www.w3.org/2000/svg"
   version="1.1"
   width="13"
   height="13"
   id="svg3009">
  <defs
     id="defs3011">
    <filter
       x="-0.2831966"
       y="-0.20823713"
       width="1.5663933"
       height="1.4164743"
       color-interpolation-filters="sRGB"
       id="filter3837">
      <feGaussianBlur
         stdDeviation="0.57915569"
         id="feGaussianBlur3839" />
    </filter>
  </defs>
  <metadata
     id="metadata3014">
    <rdf:RDF>
      <cc:Work
         rdf:about="">
        <dc:format>image/svg+xml</dc:format>
        <dc:type
           rdf:resource="http://purl.org/dc/dcmitype/StillImage" />
        <dc:title></dc:title>
      </cc:Work>
    </rdf:RDF>
  </metadata>
  <g
     transform="translate(0,-1039.3622)"
     id="layer1">
    <path
       d="m 12.011811,1045.374 c 0,3.1181 -2.870079,5.9882 -6.023622,5.9882 C 2.870079,1051.3622 0,1048.4921 0,1045.374 c 0,-3.1535 2.870079,-6.0236 5.988189,-6.0236 3.153543,0 6.023622,2.8701 6.023622,6.0236 z"
       id="path3810"
       style="fill:#7f7f7f;fill-opacity:0.70196078;fill-rule:nonzero;stroke:none" />
    <path
       d="m 6.767717,1043.0709 c -0.92126,-0.1772 -1.84252,0.1417 -1.984252,0.7086 -0.07087,0.3189 0.106299,0.7087 0.46063,0.9922 -0.03543,0.071 -0.07087,0.1063 -0.07087,0.1771 l -0.141732,0.5315 c -0.03543,0.1063 -0.03543,0.1772 -0.07087,0.2835 -0.708661,0.071 -1.240158,0.3897 -1.38189,0.8504 -0.177165,0.6378 0.46063,1.4527 1.452756,1.8425 l 0.106306,1.2402 0.744095,-0.9922 c 1.027559,0.1418 2.019685,-0.248 2.161417,-0.8858 0.141733,-0.4606 -0.177165,-1.0276 -0.779527,-1.4528 0.03543,-0.071 0.07087,-0.1417 0.106299,-0.248 l 0.141732,-0.5315 c 0,-0.071 0,-0.1063 0.03543,-0.1771 0.460633,-0.1063 0.779531,-0.3544 0.88583,-0.6733 0.177165,-0.6023 -0.637795,-1.4173 -1.665354,-1.6653 z"
       id="path3812"
       style="opacity:0.25;fill:#000000;fill-opacity:1;fill-rule:nonzero;stroke:none;filter:url(#filter3837)" />
    <path
       d="m 6.767717,1042.0787 c -0.92126,-0.2126 -1.84252,0.1063 -1.984252,0.6733 -0.07087,0.3189 0.106299,0.7086 0.46063,1.0275 -0.03543,0.071 -0.07087,0.1063 -0.07087,0.1772 l -0.141732,0.5315 c -0.03543,0.1063 -0.03543,0.1772 -0.07087,0.2835 -0.708661,0.035 -1.240158,0.3897 -1.38189,0.8504 -0.177165,0.6377 0.46063,1.4527 1.452756,1.8425 l 0.106306,1.2401 0.744095,-1.0275 c 1.027559,0.1771 2.019685,-0.2126 2.161417,-0.8504 0.141733,-0.4607 -0.177165,-1.0276 -0.779527,-1.4528 0.03543,-0.071 0.07087,-0.1771 0.106299,-0.248 l 0.141732,-0.5315 c 0,-0.071 0,-0.1417 0.03543,-0.1772 0.460633,-0.1063 0.779531,-0.3543 0.88583,-0.6732 0.177165,-0.6024 -0.637795,-1.4173 -1.665354,-1.6654 z"
       id="path3814"
       style="fill:#ffffff;fill-opacity:1;fill-rule:nonzero;stroke:none" />
  </g>
</svg>
