<?xml version="1.0" encoding="UTF-8" standalone="no"?>
<!-- See license.txt for terms of usage -->
<svg
   xmlns:dc="http://purl.org/dc/elements/1.1/"
   xmlns:cc="http://creativecommons.org/ns#"
   xmlns:rdf="http://www.w3.org/1999/02/22-rdf-syntax-ns#"
   xmlns:svg="http://www.w3.org/2000/svg"
   xmlns="http://www.w3.org/2000/svg"
   xmlns:sodipodi="http://sodipodi.sourceforge.net/DTD/sodipodi-0.dtd"
   xmlns:inkscape="http://www.inkscape.org/namespaces/inkscape"
   width="16"
   height="16"
   id="svg2"
   version="1.1"
   inkscape:version="0.48.4 r9939"
   sodipodi:docname="breakOnError.svg">
  <defs
     id="defs4">
    <filter
       inkscape:collect="always"
       id="filter3811">
      <feGaussianBlur
         inkscape:collect="always"
         stdDeviation="0.22499321"
         id="feGaussianBlur3813" />
    </filter>
    <filter
       inkscape:collect="always"
       id="filter3825">
      <feGaussianBlur
         inkscape:collect="always"
         stdDeviation="0.22499338"
         id="feGaussianBlur3827" />
    </filter>
  </defs>
  <sodipodi:namedview
     id="base"
     pagecolor="#ffffff"
     bordercolor="#666666"
     borderopacity="1.0"
     inkscape:pageopacity="0.0"
     inkscape:pageshadow="2"
     inkscape:zoom="57.5625"
     inkscape:cx="8.8282995"
     inkscape:cy="3.474717"
     inkscape:document-units="px"
     inkscape:current-layer="layer1"
     showgrid="false"
     inkscape:window-width="1920"
     inkscape:window-height="1138"
     inkscape:window-x="-8"
     inkscape:window-y="-8"
     inkscape:window-maximized="1" />
  <metadata
     id="metadata7">
    <rdf:RDF>
      <cc:Work
         rdf:about="">
        <dc:format>image/svg+xml</dc:format>
        <dc:type
           rdf:resource="http://purl.org/dc/dcmitype/StillImage" />
        <dc:title></dc:title>
      </cc:Work>
    </rdf:RDF>
  </metadata>
  <g
     inkscape:label="Ebene 1"
     inkscape:groupmode="layer"
     id="layer1"
     transform="translate(0,-1036.3622)">
    <path
       style="fill:#ffffff;fill-opacity:1;stroke:#ffffff;stroke-width:0.71987926999999996;stroke-linecap:round;stroke-linejoin:round;stroke-miterlimit:4;stroke-opacity:1;stroke-dasharray:none;filter:url(#filter3825)"
       id="path2989-4"
       d="m 11.171876,1043.3747 a 4.4999841,4.4943525 0 0 0 -4.1718599,4.4943 4.4999841,4.4943525 0 0 0 8.9999679,0 4.4999841,4.4943525 0 0 0 -4.828108,-4.4943 z m 0.117187,1.4981 a 2.9999894,2.996235 0 0 1 1.687494,0.3745 l -4.1015476,4.0965 a 2.9999894,2.996235 0 0 1 -0.3749986,-1.4748 2.9999894,2.996235 0 0 1 2.7890522,-2.9962 z m 2.765616,1.4279 a 2.9999894,2.996235 0 0 1 0.44531,1.5683 2.9999894,2.996235 0 0 1 -4.5702958,2.5515 l 4.1249858,-4.1198 z"
       inkscape:connector-curvature="0"
       transform="matrix(0.83334364,0,0,0.8333885,1.8230279,174.67935)" />
    <path
       style="fill:#ff0000;fill-opacity:1;stroke:#a00000;stroke-width:0;stroke-linecap:round;stroke-linejoin:round;stroke-miterlimit:4;stroke-opacity:1;stroke-dasharray:none"
       id="path2989"
       d="m 11.133514,1044.2139 a 3.7503378,3.7462196 0 0 0 -3.4768754,3.7462 3.7503378,3.7462196 0 0 0 7.5006754,0 3.7503378,3.7462196 0 0 0 -4.0238,-3.7462 z m 0.09767,1.2487 a 2.5002251,2.4974798 0 0 1 1.406376,0.3122 l -3.4182756,3.4146 a 2.5002251,2.4974798 0 0 1 -0.3125281,-1.2293 2.5002251,2.4974798 0 0 1 2.3244277,-2.4975 z m 2.304896,1.1902 a 2.5002251,2.4974798 0 0 1 0.371126,1.3073 2.5002251,2.4974798 0 0 1 -3.808936,2.1268 l 3.43781,-3.4341 z"
       inkscape:connector-curvature="0" />
  </g>
</svg>
