<?xml version="1.0" encoding="UTF-8" standalone="no"?>
<!-- See license.txt for terms of usage -->
<svg
   xmlns:dc="http://purl.org/dc/elements/1.1/"
   xmlns:cc="http://creativecommons.org/ns#"
   xmlns:rdf="http://www.w3.org/1999/02/22-rdf-syntax-ns#"
   xmlns:svg="http://www.w3.org/2000/svg"
   xmlns="http://www.w3.org/2000/svg"
   version="1.1"
   width="16"
   height="16"
   id="svg2">
  <defs
     id="defs4">
    <filter
       color-interpolation-filters="sRGB"
       id="filter3934">
      <feGaussianBlur
         id="feGaussianBlur3936"
         stdDeviation="0.23984438" />
    </filter>
    <filter
       color-interpolation-filters="sRGB"
       id="filter4481">
      <feGaussianBlur
         id="feGaussianBlur4483"
         stdDeviation="0.168515" />
    </filter>
  </defs>
  <metadata
     id="metadata7">
    <rdf:RDF>
      <cc:Work
         rdf:about="">
        <dc:format>image/svg+xml</dc:format>
        <dc:type
           rdf:resource="http://purl.org/dc/dcmitype/StillImage" />
        <dc:title></dc:title>
      </cc:Work>
    </rdf:RDF>
  </metadata>
  <g
     transform="translate(0,-1036.3622)"
     id="layer1">
    <g
       transform="matrix(1.1709074,0,0,1.1709074,-2.2944412,-179.41641)"
       id="g4485">
      <path
         d="m 9.2175641,1046.131 c -0.9853084,0.827 -1.9835078,1.6515 -2.9675641,2.4801 0.9595986,0.8585 1.9791933,1.6727 2.9675641,2.5011 l 0.3179536,-0.3816 -2.5224298,-2.1195 2.5224298,-2.0984 z m 2.5648719,0 -0.317953,0.3817 2.522429,2.0984 -2.522429,2.1195 0.317953,0.3816 c 0.988372,-0.8284 2.007966,-1.6426 2.967564,-2.5011 -0.984057,-0.8286 -1.982256,-1.6531 -2.967564,-2.4801 z"
         id="rect3856-5"
         style="fill:#ffffff;fill-opacity:1;stroke:#ffffff;stroke-width:0.93944222;stroke-linecap:round;stroke-linejoin:round;stroke-miterlimit:4;stroke-opacity:1;stroke-dasharray:none;filter:url(#filter4481)" />
      <path
         d="m 9.2175641,1046.131 c -0.9853084,0.827 -1.9835078,1.6515 -2.9675641,2.4801 0.9595986,0.8585 1.9791933,1.6727 2.9675641,2.5011 l 0.3179536,-0.3816 -2.5224298,-2.1195 2.5224298,-2.0984 z m 2.5648719,0 -0.317953,0.3817 2.522429,2.0984 -2.522429,2.1195 0.317953,0.3816 c 0.988372,-0.8284 2.007966,-1.6426 2.967564,-2.5011 -0.984057,-0.8286 -1.982256,-1.6531 -2.967564,-2.4801 z"
         id="rect3856"
         style="fill:#000000;fill-opacity:1;stroke:#000000;stroke-width:0.42701918;stroke-linecap:round;stroke-linejoin:round;stroke-miterlimit:4;stroke-opacity:1;stroke-dasharray:none" />
    </g>
  </g>
</svg>
