<?xml version="1.0" encoding="UTF-8" standalone="no"?>
<!-- See license.txt for terms of usage -->
<svg
   xmlns:dc="http://purl.org/dc/elements/1.1/"
   xmlns:cc="http://creativecommons.org/ns#"
   xmlns:rdf="http://www.w3.org/1999/02/22-rdf-syntax-ns#"
   xmlns:svg="http://www.w3.org/2000/svg"
   xmlns="http://www.w3.org/2000/svg"
   version="1.1"
   width="16"
   height="16"
   id="svg2">
  <defs
     id="defs4">
    <filter
       color-interpolation-filters="sRGB"
       id="filter3934">
      <feGaussianBlur
         stdDeviation="0.23984438"
         id="feGaussianBlur3936" />
    </filter>
    <filter
       color-interpolation-filters="sRGB"
       id="filter4481">
      <feGaussianBlur
         stdDeviation="0.168515"
         id="feGaussianBlur4483" />
    </filter>
    <filter
       color-interpolation-filters="sRGB"
       id="filter3799">
      <feGaussianBlur
         id="feGaussianBlur3801"
         stdDeviation="0.18598389" />
    </filter>
    <filter
       color-interpolation-filters="sRGB"
       id="filter3800">
      <feGaussianBlur
         id="feGaussianBlur3802"
         stdDeviation="0.2229504" />
    </filter>
  </defs>
  <metadata
     id="metadata7">
    <rdf:RDF>
      <cc:Work
         rdf:about="">
        <dc:format>image/svg+xml</dc:format>
        <dc:type
           rdf:resource="http://purl.org/dc/dcmitype/StillImage" />
        <dc:title></dc:title>
      </cc:Work>
    </rdf:RDF>
  </metadata>
  <g
     transform="translate(0.04694203,0.04694103)"
     id="g3804">
    <g
       id="text2990-1"
       style="font-size:7.82355833px;font-style:normal;font-weight:normal;line-height:125%;letter-spacing:0px;word-spacing:0px;fill:#ffffff;fill-opacity:1;stroke:#ffffff;stroke-width:0.60000002;stroke-linejoin:round;stroke-miterlimit:4;stroke-opacity:1;stroke-dasharray:none;filter:url(#filter3800);font-family:Sans">
      <path
         d="m 2.8822073,15.117978 1.4630971,-2.089593 -1.4019755,-1.96735 1.3102932,0 0.7181782,1.115469 0.7563792,-1.115469 1.2606319,0 -1.3752348,1.921509 1.501298,2.135434 -1.3179334,0 -0.8251409,-1.256812 -0.8327811,1.256812 z"
         id="path2998-7"
         style="font-weight:bold;fill:#ffffff;fill-opacity:1;stroke:#ffffff;stroke-width:0.60000002;stroke-linejoin:round;stroke-miterlimit:4;stroke-opacity:1;stroke-dasharray:none;-inkscape-font-specification:Sans Bold" />
      <path
         d="m 8.8224579,9.5177161 0,2.0590319 c 0.3463535,-0.404926 0.7601969,-0.607391 1.2415311,-0.607395 0.24703,4e-6 0.469869,0.04584 0.668517,0.137523 0.198642,0.09169 0.348262,0.208836 0.448862,0.351449 0.100591,0.142621 0.169353,0.300518 0.206285,0.473692 0.03692,0.173181 0.05539,0.441861 0.05539,0.806041 l 0,2.37992 -1.073447,0 0,-2.143074 c -3e-6,-0.425302 -0.02038,-0.695255 -0.06112,-0.809861 -0.04075,-0.1146 -0.112696,-0.205645 -0.215836,-0.273137 -0.1031453,-0.06749 -0.2323918,-0.101229 -0.3877397,-0.101232 -0.1782735,3e-6 -0.3374441,0.0433 -0.4775121,0.129883 -0.1400721,0.08659 -0.242578,0.217112 -0.3075178,0.39156 -0.064943,0.174454 -0.097414,0.43231 -0.097413,0.77357 l 0,2.032291 -1.0734472,0 0,-5.6002619 z"
         id="path3000-4"
         style="font-weight:bold;fill:#ffffff;fill-opacity:1;stroke:#ffffff;stroke-width:0.60000002;stroke-linejoin:round;stroke-miterlimit:4;stroke-opacity:1;stroke-dasharray:none;-inkscape-font-specification:Sans Bold" />
      <path
         d="m 13.563198,15.117978 -1.073447,0 0,-4.056943 0.997045,0 0,0.576835 c 0.170629,-0.272497 0.32407,-0.452041 0.460322,-0.538634 0.136248,-0.08658 0.290961,-0.129879 0.464141,-0.129883 0.244484,4e-6 0.480056,0.06749 0.706718,0.202465 l -0.332348,0.935924 c -0.180821,-0.117147 -0.348905,-0.175721 -0.504253,-0.175725 -0.150259,4e-6 -0.277596,0.04139 -0.38201,0.124153 -0.104417,0.08277 -0.186549,0.232393 -0.246396,0.448862 -0.05985,0.216474 -0.08977,0.669792 -0.08977,1.359954 z"
         id="path3002-0"
         style="font-weight:bold;fill:#ffffff;fill-opacity:1;stroke:#ffffff;stroke-width:0.60000002;stroke-linejoin:round;stroke-miterlimit:4;stroke-opacity:1;stroke-dasharray:none;-inkscape-font-specification:Sans Bold" />
    </g>
    <g
       id="text2990"
       style="font-size:7.82355833px;font-style:normal;font-weight:normal;line-height:125%;letter-spacing:0px;word-spacing:0px;fill:#000000;fill-opacity:1;stroke:none;font-family:Sans">
      <path
         d="m 2.8822073,15.117978 1.4630971,-2.089593 -1.4019755,-1.96735 1.3102932,0 0.7181782,1.115469 0.7563792,-1.115469 1.2606319,0 -1.3752348,1.921509 1.501298,2.135434 -1.3179334,0 -0.8251409,-1.256812 -0.8327811,1.256812 z"
         id="path2998"
         style="font-weight:bold;-inkscape-font-specification:Sans Bold" />
      <path
         d="m 8.8224579,9.5177161 0,2.0590319 c 0.3463535,-0.404926 0.7601969,-0.607391 1.2415311,-0.607395 0.24703,4e-6 0.469869,0.04584 0.668517,0.137523 0.198642,0.09169 0.348262,0.208836 0.448862,0.351449 0.100591,0.142621 0.169353,0.300518 0.206285,0.473692 0.03692,0.173181 0.05539,0.441861 0.05539,0.806041 l 0,2.37992 -1.073447,0 0,-2.143074 c -3e-6,-0.425302 -0.02038,-0.695255 -0.06112,-0.809861 -0.04075,-0.1146 -0.112696,-0.205645 -0.215836,-0.273137 -0.1031453,-0.06749 -0.2323918,-0.101229 -0.3877397,-0.101232 -0.1782735,3e-6 -0.3374441,0.0433 -0.4775121,0.129883 -0.1400721,0.08659 -0.242578,0.217112 -0.3075178,0.39156 -0.064943,0.174454 -0.097414,0.43231 -0.097413,0.77357 l 0,2.032291 -1.0734472,0 0,-5.6002619 z"
         id="path3000"
         style="font-weight:bold;-inkscape-font-specification:Sans Bold" />
      <path
         d="m 13.563198,15.117978 -1.073447,0 0,-4.056943 0.997045,0 0,0.576835 c 0.170629,-0.272497 0.32407,-0.452041 0.460322,-0.538634 0.136248,-0.08658 0.290961,-0.129879 0.464141,-0.129883 0.244484,4e-6 0.480056,0.06749 0.706718,0.202465 l -0.332348,0.935924 c -0.180821,-0.117147 -0.348905,-0.175721 -0.504253,-0.175725 -0.150259,4e-6 -0.277596,0.04139 -0.38201,0.124153 -0.104417,0.08277 -0.186549,0.232393 -0.246396,0.448862 -0.05985,0.216474 -0.08977,0.669792 -0.08977,1.359954 z"
         id="path3002"
         style="font-weight:bold;-inkscape-font-specification:Sans Bold" />
    </g>
  </g>
</svg>
